<?xml version="1.0" encoding="UTF-8"?>
<!DOCTYPE svg PUBLIC "-//W3C//DTD SVG 1.1//EN" "http://www.w3.org/Graphics/SVG/1.1/DTD/svg11.dtd">
<!-- Creator: CorelDRAW 2021 (64 Bit) -->
<svg xmlns="http://www.w3.org/2000/svg" xml:space="preserve" width="43.3492mm" height="43.3492mm" version="1.1" style="shape-rendering:geometricPrecision; text-rendering:geometricPrecision; image-rendering:optimizeQuality; fill-rule:evenodd; clip-rule:evenodd"
viewBox="0 0 4334.92 4334.92"
 xmlns:xlink="http://www.w3.org/1999/xlink"
 xmlns:xodm="http://www.corel.com/coreldraw/odm/2003">
 <defs>
  <style type="text/css">
   <![CDATA[
    .fil0 {fill:black}
   ]]>
  </style>
 </defs>
 <g id="Camada_x0020_1">
  <metadata id="CorelCorpID_0Corel-Layer"/>
  <g id="_3161604117856">
   <path class="fil0" d="M2169.23 3318.92l-313.27 0c-54.65,0 -101.6,-31.69 -101.6,-84.66l0 -567.27 508 0 0 558.8c0,49.47 -43.66,93.13 -93.13,93.13zm-448.73 -2379.12c0,103.68 156.67,76.2 279.4,76.2 118.64,0 237.28,0.11 355.92,-0.32 208.35,-0.76 187.08,234.69 60.6,272.91 -42.16,12.74 -111.72,0.56 -111.72,66.07 0,84.79 80.33,69.78 160.87,76.19 140.1,11.17 172.32,232.23 12.07,274.55 -48.78,12.88 -172.94,-19.32 -172.94,64.13 0,68.3 58.2,68.65 86.94,73.92 164.9,30.24 156.01,231.14 16.27,274.83 -39.95,12.49 -117.65,-1.31 -145.99,14.89 -33.92,19.4 -45.26,81.36 -5.34,107.75 23.12,15.29 183.58,16.84 183.58,155.14 0,81.43 -70.67,143.93 -169.33,143.93l-1066.8 0c-93.28,0 -155.72,-21.8 -211.66,-59.26 51.39,-220.62 -42.9,-1308.55 37.16,-1512.24 39.74,-101.12 101.77,-147.11 186.38,-203.08 123.03,-81.4 207.14,-181.39 270.46,-313.74 11.74,-24.54 16.23,-40.63 28,-65.14 65.68,-136.84 97.89,-251.06 265.39,-251.06 101.05,0 194.74,99.52 194.74,203.2 0,118.28 -254,546.55 -254,601.13zm-812.8 -16.94c-42.59,-9.92 -55.63,-33.86 -110.07,-33.86l-364.06 0c-98.28,0 -203.2,104.92 -203.2,203.2 0,114.76 -25.31,270.93 59.27,270.93 159.14,0 -37.37,-347.13 177.8,-347.13l296.33 0c66.26,0 110.06,43.8 110.06,110.06l0 1261.53c0,55.7 -29.68,110.07 -84.66,110.07 -452.56,0 -431.8,47.41 -431.8,-237.07l0.03 -643.49c0.27,-62.18 9.33,-106.63 -34.8,-126.88 -44.73,-20.52 -92.23,7.4 -92.23,59.18l0 863.59c0,124.26 109.14,220.14 211.67,220.14l347.13 0c60.45,0 87.86,-31.89 127,-42.34 59.49,31.48 129.45,76.2 220.13,76.2l482.6 0 0 567.27c0,126.09 112.59,220.13 270.93,220.13 158.16,0 289.98,19.27 406.4,-42.33 149.86,283.22 175.09,186.1 323.89,336.51 104.58,105.71 110.25,139.93 175.77,272.96 54.25,110.16 119.17,313.39 355.47,313.39 107.19,0 183.52,-44.62 243.25,-95.42 50.49,-42.93 103.88,-150.8 103.88,-243.25 0,-127.12 -104.77,-287.22 -155.97,-411.29 -18.32,-44.39 -43.09,-90.74 -64.16,-130.57 79.02,0 158.04,0 237.07,0 77.2,0 186.26,17.35 186.26,-59.27 0,-30.94 -23.36,-67.73 -50.8,-67.73l-482.6 0c-24.78,0 -52.41,34.94 -54.48,60.34 -3.24,39.51 148.54,331.59 181.37,405.44 51.45,115.7 67.85,113.5 67.85,220.02 0,162.64 -224.66,258.58 -358.1,121.03 -30.66,-31.6 -57.33,-91.42 -76.15,-135.52 -207.92,-487.17 -364.05,-374.87 -480.88,-577.44 -23.86,-41.36 -50.07,-96.44 -50.07,-161.6l0 -592.67c0,-50.44 169.33,-41.93 169.33,-287.86 0,-69.04 -31.4,-119.26 -59.26,-160.87 119.44,-79.98 167.1,-201.21 117.63,-337.77 -19.83,-54.74 -31.39,-39.49 -41.43,-77.1l1032.93 0c88.64,-0.05 211.66,-12.02 211.66,152.4 0,147.15 -203.2,103.81 -203.2,177.8 0,106.47 66.21,72.01 168.63,85.37 135.81,17.72 149.15,226.7 16.35,268.95 -28.35,9.02 -69.36,6.7 -88.88,21.29 -23.74,17.74 -28.44,52.96 -17.75,78.64 26,62.42 107.91,23.33 180.66,48.74 125.57,43.86 125.57,220.16 0,264.02 -72.75,25.42 -154.66,-13.67 -180.66,48.74 -10.42,25.02 -6.51,55.45 13.2,74.61 26.62,25.88 187.85,9.25 187.85,159.51 0,105.38 -84.67,97.87 -84.67,169.33 0,63.71 63.79,78.16 106.74,47.72 215.01,-152.41 46,-402.07 45.66,-403.32 63.97,-17.08 135.47,-122.35 135.47,-203.2 0,-125.4 -29.51,-191.52 -135.47,-262.46 45.58,-68.07 74.97,-123.01 58.42,-227.35 -8.69,-54.76 -42.78,-111.04 -81.44,-147.56 -19.78,-18.7 -31.26,-21.6 -44.71,-39.96 9.55,-35.74 117.27,-163.38 15.69,-320.49 -23.43,-36.23 -63.68,-73.31 -100.44,-94.29 -84.73,-48.36 -216.23,-33.95 -347.05,-33.95 -256.82,0 -513.64,0 -770.46,0 20.77,-89.16 30.97,-156.39 -26.75,-244.18 -36.17,-55 -74.73,-71.21 -91.78,-94.49 43.39,-82.02 59.26,-84.28 59.26,-186.26 0,-137.3 -110.69,-247.61 -246.54,-261.46 -139.11,-14.17 -359.13,-1.01 -506.99,-1.01l112.85 -242.75c63.31,-136.64 190.75,-341.36 16.46,-521.56 -33.06,-34.19 -55.03,-54.56 -100.81,-76.99 -165.61,-81.12 -347.28,-18.08 -433.51,114.56 -87.13,134.01 -104.81,284.98 -244.76,424.1 -98.35,97.78 -183.79,115.98 -247.87,200.86 -26.64,35.28 -73.28,95.99 -84.49,144.11z"/>
   <path class="fil0" d="M712.97 3268.12c-35.42,0 -59.27,-67.19 -59.27,-101.6 0,-56.08 64.58,-57.96 110.76,-67.03 110.44,-21.71 202.51,-67.17 202.51,58.57 0,41.57 -73.12,56.92 -108.99,68.81 -32.78,10.87 -106.8,41.25 -145.01,41.25zm0 135.47c44.35,0 87.36,-16.62 122.13,-30.27 101.7,-39.93 158.07,-34.96 218.74,-102.99 101.9,-114.24 32.38,-288.94 -103.35,-324.62 -52.35,-13.76 -249.07,23.35 -304.5,43.77 -34.42,12.68 -78.23,47.28 -97.02,80.78 -26.26,46.79 -29.71,87.05 -20.21,144.61 12.37,74.97 46.51,134.82 113.19,166.61 13.61,6.49 57.2,22.11 71.02,22.11z"/>
   <path class="fil0" d="M1593.5 4148.65c0,-28.27 53.9,-254 101.6,-254 130.07,0 91.42,66.78 61.56,222.43 -32.06,167.15 -163.16,57.64 -163.16,31.57zm112.47 186.27l-43.42 0c-103.71,-9.43 -204.52,-84.82 -204.52,-203.2 0,-39.58 56.92,-194.35 72.76,-240.51 55.97,-163.09 260.6,-170.66 352.1,-48.88 44.75,59.56 39.6,115.92 23.26,195.63 -13.55,66.13 -21.31,152.69 -50.25,203.76 -32.94,58.14 -89.57,87.63 -149.93,93.2z"/>
   <path class="fil0" d="M1127.83 3826.92c-40.97,0 -93.13,-44.11 -93.13,-101.6 0,-21.57 173.28,-177.8 203.2,-177.8 31.21,0 129.97,44.19 27.49,146.03 -46.97,46.68 -98.09,133.37 -137.56,133.37zm-228.6 -93.13c0,121.49 149.84,274.08 301.75,208.62 47.45,-20.45 105.58,-94.11 137.26,-133.68 60.23,-75.24 102.86,-84.44 102.86,-201.94 0,-88.31 -90.8,-186.27 -177.8,-186.27 -109.58,0 -138.75,27.19 -234.85,120.75 -29.72,28.93 -56.87,42.34 -84.65,76.22 -18.52,22.6 -44.57,78.93 -44.57,116.3z"/>
   <path class="fil0" d="M3320.69 508c25.37,0 162.03,63.68 49.7,151.29 -85.78,66.9 -137.58,162.88 -204.74,105.54 -67.46,-57.6 -2.02,-97 32.93,-141.88 21.41,-27.5 35.69,-39.41 54.34,-64.2 14.04,-18.66 36.59,-50.75 67.77,-50.75zm-313.26 177.8l0 42.33c0,117.57 176.97,282.84 353.56,116.49 24.18,-22.78 33.45,-29.88 58.77,-51.29 61.47,-51.99 123.77,-100.28 126.51,-193.17 3.97,-134.54 -195.27,-322.21 -359.24,-166.56l-97.47 114.2c-27.37,32.33 -82.13,84.96 -82.13,138z"/>
   <path class="fil0" d="M2736.49 440.27c-114.53,0 -65.33,-106.44 -44.52,-213.86 9.93,-51.22 12.14,-92.84 62.23,-96.8 28.23,-2.24 100.83,13.39 100.83,65.12 0,37.93 -26.93,101.97 -39.14,138.66 -17.03,51.22 -18.81,106.88 -79.4,106.88zm17.33 -440.27l24.27 0c106.02,5.12 212.4,77.01 212.4,203.2 0,37.12 -58.02,199.61 -73.51,239.75 -81.52,211.13 -383.68,157.93 -383.68,-70.42 0,-47.85 31.74,-209.03 45.84,-250.48 26.95,-79.22 98.59,-118.31 174.68,-122.05z"/>
   <path class="fil0" d="M3481.56 1193.8c0,-63.1 13.14,-56.79 100.52,-85.75 83,-27.51 208.99,-92.32 210.32,53.27 0.62,68.4 -128.48,76.95 -225.32,93.56 -46.2,7.92 -85.52,-1.76 -85.52,-61.08zm-135.47 -16.94c0,115.5 71.34,211.67 194.74,211.67l250.84 -45.48c207.86,-62.05 159.98,-411.72 -81.51,-411.72 -38.44,0 -88.37,22.72 -118.59,33.81 -94.88,34.79 -245.48,61.08 -245.48,211.72z"/>
  </g>
 </g>
</svg>
